<svg version="1.1" id="Layer_1" xmlns="http://www.w3.org/2000/svg" xmlns:xlink="http://www.w3.org/1999/xlink" x="0px" y="0px"
	 width="100%" viewBox="0 0 1111 1111" enable-background="new 0 0 1111 1111" xml:space="preserve">
<path fill="#000000" opacity="1.000000" stroke="none" 
	d="
M756.000000,1112.000000 
	C504.028229,1112.000000 252.556488,1112.000000 1.042363,1112.000000 
	C1.042363,741.736511 1.042363,371.472992 1.042363,1.104743 
	C371.221893,1.104743 741.443848,1.104743 1111.832886,1.104743 
	C1111.832886,371.333282 1111.832886,741.666626 1111.832886,1112.000000 
	C993.472717,1112.000000 874.986389,1112.000000 756.000000,1112.000000 
M251.097214,472.244965 
	C251.068985,497.485809 251.040756,522.726685 250.995636,548.908813 
	C250.997421,649.717285 250.998108,750.525757 251.003387,851.334229 
	C251.003738,857.977478 251.020050,857.996643 257.585632,857.996765 
	C459.035919,858.000122 660.486206,858.000305 861.936523,857.995850 
	C868.835571,857.995667 868.994141,857.840149 868.995239,851.025879 
	C869.002869,803.704224 869.001221,756.382568 868.988770,709.060913 
	C868.988281,707.230835 868.846558,705.400818 868.827026,702.690674 
	C868.866638,677.503296 868.906189,652.315979 868.981628,626.175720 
	C868.987549,499.557251 868.994751,372.938751 868.995544,246.320267 
	C868.995544,240.014297 868.969482,240.002716 862.070435,240.002640 
	C660.647095,240.000519 459.223785,240.000458 257.800446,240.002838 
	C251.013779,240.002914 251.002808,240.016281 251.002548,246.947891 
	C250.999893,319.753510 250.999588,392.559143 251.008606,465.364746 
	C251.008850,467.362213 251.120636,469.359650 251.097214,472.244965 
z"/>
<path fill="#060606" opacity="1.000000" stroke="none" 
	d="
M868.770630,703.570801 
	C868.846558,705.400818 868.988281,707.230835 868.988770,709.060913 
	C869.001221,756.382568 869.002869,803.704224 868.995239,851.025879 
	C868.994141,857.840149 868.835571,857.995667 861.936523,857.995850 
	C660.486206,858.000305 459.035919,858.000122 257.585632,857.996765 
	C251.020050,857.996643 251.003738,857.977478 251.003387,851.334229 
	C250.998108,750.525757 250.997421,649.717285 251.458466,548.559326 
	C277.296600,548.209839 302.671906,548.209839 328.296967,548.209839 
	C328.296967,543.327759 328.281647,539.179138 328.299561,535.030579 
	C328.381470,516.064819 328.472717,497.099091 328.991241,478.118591 
	C335.013519,478.180389 340.605133,478.256927 346.192017,478.781128 
	C346.187286,502.137177 346.187286,525.045593 346.187286,547.902344 
	C391.943329,547.902344 436.976044,547.902344 482.296967,547.902344 
	C482.296967,545.196655 482.288696,542.880676 482.298218,540.564880 
	C482.383911,519.754333 482.472748,498.943817 482.949341,478.126373 
	C484.368103,478.187073 485.398163,478.254700 486.422546,478.770203 
	C486.416870,502.094757 486.416870,524.971436 486.416870,547.927917 
	C510.122345,547.927917 533.133301,547.927917 556.359985,547.927917 
	C556.359985,524.461548 556.359985,501.365509 556.695190,478.242615 
	C557.704041,478.170898 558.377563,478.126038 559.142090,478.537170 
	C559.232971,501.916656 559.232971,524.840149 559.232971,547.939209 
	C605.355652,547.939209 650.842346,547.939209 696.706360,547.939209 
	C696.706360,524.481079 696.706360,501.380768 697.183228,478.186829 
	C702.786011,478.055817 707.911865,478.018433 713.132751,478.442780 
	C713.227722,501.831970 713.227722,524.759460 713.227722,547.896851 
	C754.782776,547.896851 795.746643,547.896851 836.818298,547.896851 
	C836.818298,524.390503 836.818298,501.286102 836.886719,477.737122 
	C836.692871,474.783142 838.462769,471.158783 833.576111,471.200256 
	C819.596802,471.318878 805.617432,471.426331 791.198792,471.461060 
	C770.762695,471.354279 750.765747,471.293488 730.768982,471.314392 
	C724.951294,471.320496 719.133850,471.559937 712.844727,471.578278 
	C706.928345,471.466125 701.483582,471.468048 695.577881,471.370850 
	C681.812134,471.218842 668.507019,471.104645 655.202393,471.140167 
	C648.902649,471.156982 642.603699,471.460175 635.850891,471.501068 
	C610.160889,471.380920 584.924316,471.393311 559.270630,471.321930 
	C533.268005,471.313507 507.682465,471.388885 481.626770,471.397736 
	C456.015747,471.342865 430.874939,471.354523 405.308594,471.273254 
	C379.287720,471.274994 353.692352,471.369629 327.626770,471.397766 
	C301.831207,471.339844 276.505798,471.348480 251.180405,471.357117 
	C251.120636,469.359650 251.008850,467.362213 251.008606,465.364746 
	C250.999588,392.559143 250.999893,319.753510 251.002548,246.947891 
	C251.002808,240.016281 251.013779,240.002914 257.800446,240.002838 
	C459.223785,240.000458 660.647095,240.000519 862.070435,240.002640 
	C868.969482,240.002716 868.995544,240.014297 868.995544,246.320267 
	C868.994751,372.938751 868.987549,499.557251 868.515259,626.516724 
	C842.704468,626.857666 817.360107,626.857666 791.485229,626.857666 
	C791.485229,647.709473 791.485229,667.959106 791.052246,688.204956 
	C782.780212,688.176147 774.941223,688.151184 767.059082,688.071411 
	C767.015991,688.016663 766.901489,688.096191 766.908081,687.621582 
	C766.914734,664.408264 766.914734,641.669617 766.914734,618.678101 
	C743.296570,618.678101 720.255249,618.678101 697.065247,618.678101 
	C696.849182,621.376038 696.655273,623.796387 696.408813,626.873718 
	C676.306030,626.873718 656.470703,626.873718 636.093689,626.873718 
	C636.093689,647.832336 636.093689,668.104126 635.628784,688.371094 
	C632.338013,688.276184 629.512268,688.186157 626.693848,687.621643 
	C626.701172,664.414734 626.701172,641.682251 626.701172,618.788269 
	C602.954163,618.788269 579.949768,618.788269 556.800598,618.788269 
	C556.554932,621.564270 556.343201,623.956604 556.130371,626.361572 
	C532.715881,626.361572 509.831207,626.361572 486.764832,626.361572 
	C486.495422,623.631348 486.256348,621.208862 486.019806,618.811646 
	C462.682770,618.811646 439.650543,618.811646 416.313293,618.811646 
	C416.313293,642.188843 416.313293,665.142029 415.848999,688.178711 
	C412.097168,688.291870 408.809601,688.321594 405.432281,687.868286 
	C405.342499,667.329346 405.342499,647.273438 405.342499,626.744812 
	C385.343872,626.744812 365.947388,626.744812 346.446838,626.320312 
	C346.181458,623.492065 346.020172,621.088318 345.867401,618.811157 
	C322.342499,618.811157 299.347473,618.811157 276.282379,618.811157 
	C276.282379,642.340027 276.282379,665.426880 276.205566,689.010437 
	C276.098297,693.150024 275.804688,696.820618 276.183960,700.420349 
	C276.312073,701.636108 278.139435,703.639282 279.199921,703.645630 
	C295.586853,703.742798 311.975403,703.569946 328.802704,703.536865 
	C354.558105,703.554565 379.874329,703.495239 405.625122,703.536133 
	C431.567322,703.615234 457.075012,703.594055 483.074799,703.625488 
	C508.759430,703.627319 533.951965,703.576416 559.580811,703.627563 
	C585.469971,703.760742 610.922974,703.791809 636.882141,703.779175 
	C662.640503,703.665405 687.892578,703.595459 713.583252,703.626648 
	C731.657043,703.633728 749.292297,703.539673 767.393250,703.548950 
	C775.873169,703.613892 783.887390,703.575500 792.371948,703.604065 
	C818.151672,703.637573 843.461121,703.604187 868.770630,703.570801 
M417.194824,337.861298 
	C438.780182,337.861298 460.365570,337.861298 482.032227,337.861298 
	C482.032227,330.774902 482.032227,324.173615 482.032227,317.493591 
	C459.942566,317.493591 438.145752,317.493591 415.381897,317.327240 
	C392.278381,317.365601 369.174866,317.403992 345.117920,317.295197 
	C339.679810,317.295197 334.241669,317.295197 328.547180,317.295197 
	C328.547180,324.356934 328.547180,330.904541 328.547180,337.757751 
	C334.582123,337.757751 340.349304,337.757751 347.029846,337.890717 
	C370.120575,337.835175 393.211334,337.779663 417.194824,337.861298 
M695.818604,317.351990 
	C676.098572,317.351990 656.378479,317.351990 636.618835,317.351990 
	C636.618835,324.522034 636.618835,331.078308 636.618835,337.730835 
	C656.895630,337.730835 676.828430,337.730835 697.721008,337.855133 
	C720.800415,337.820709 743.879761,337.786285 767.901917,337.900269 
	C775.659424,337.900269 783.416992,337.900269 791.295410,337.900269 
	C791.295410,330.801575 791.295410,324.142609 791.295410,317.452118 
	C782.910339,317.452118 774.955139,317.452118 766.078430,317.285126 
	C742.959473,317.352570 719.840454,317.420013 695.818604,317.351990 
z"/>
<path fill="#ACACAC" opacity="1.000000" stroke="none" 
	d="
M328.560608,478.133362 
	C328.472717,497.099091 328.381470,516.064819 328.299561,535.030579 
	C328.281647,539.179138 328.296967,543.327759 328.296967,548.209839 
	C302.671906,548.209839 277.296600,548.209839 251.466904,548.088684 
	C251.040756,522.726685 251.068985,497.485809 251.138809,471.801025 
	C276.505798,471.348480 301.831207,471.339844 327.647400,471.803375 
	C328.278992,474.228149 328.419830,476.180756 328.560608,478.133362 
z"/>
<path fill="#ACABAB" opacity="1.000000" stroke="none" 
	d="
M791.485229,688.208801 
	C791.485229,667.959106 791.485229,647.709473 791.485229,626.857666 
	C817.360107,626.857666 842.704468,626.857666 868.497314,626.993164 
	C868.906189,652.315979 868.866638,677.503296 868.798828,703.130737 
	C843.461121,703.604187 818.151672,703.637573 792.346313,703.177856 
	C791.728699,697.859436 791.606995,693.034119 791.485229,688.208801 
z"/>
<path fill="#ABABAB" opacity="1.000000" stroke="none" 
	d="
M559.144531,703.525513 
	C533.951965,703.576416 508.759430,703.627319 483.033661,703.198853 
	C482.500427,698.112366 482.500427,693.505249 482.500427,688.439697 
	C479.543488,688.439697 477.410156,688.450195 475.276917,688.437988 
	C455.622375,688.325928 435.967834,688.210022 416.313293,688.095215 
	C416.313293,665.142029 416.313293,642.188843 416.313293,618.811646 
	C439.650543,618.811646 462.682770,618.811646 486.019806,618.811646 
	C486.256348,621.208862 486.495422,623.631348 486.764832,626.361572 
	C509.831207,626.361572 532.715881,626.361572 556.130371,626.361572 
	C556.343201,623.956604 556.554932,621.564270 556.800598,618.788269 
	C579.949768,618.788269 602.954163,618.788269 626.701172,618.788269 
	C626.701172,641.682251 626.701172,664.414734 626.253723,687.704346 
	C603.783936,688.261597 581.761658,688.261597 559.144531,688.261597 
	C559.144531,693.957703 559.144531,698.741638 559.144531,703.525513 
z"/>
<path fill="#ACABAB" opacity="1.000000" stroke="none" 
	d="
M696.706360,478.280457 
	C696.706360,501.380768 696.706360,524.481079 696.706360,547.939209 
	C650.842346,547.939209 605.355652,547.939209 559.232971,547.939209 
	C559.232971,524.840149 559.232971,501.916656 559.258301,478.181274 
	C559.418335,475.381531 559.553040,473.393616 559.687744,471.405731 
	C584.924316,471.393311 610.160889,471.380920 635.843872,471.963287 
	C636.290405,474.313843 636.290405,476.069580 636.290405,478.059143 
	C656.725464,478.059143 676.368530,478.059143 696.166809,478.172546 
	C696.322021,478.285950 696.706360,478.280457 696.706360,478.280457 
z"/>
<path fill="#ACACAC" opacity="1.000000" stroke="none" 
	d="
M405.734100,471.366211 
	C430.874939,471.354523 456.015747,471.342865 481.647400,471.803345 
	C482.278992,474.228088 482.419800,476.180695 482.560638,478.133301 
	C482.472748,498.943817 482.383911,519.754333 482.298218,540.564880 
	C482.288696,542.880676 482.296967,545.196655 482.296967,547.902344 
	C436.976044,547.902344 391.943329,547.902344 346.187286,547.902344 
	C346.187286,525.045593 346.187286,502.137177 346.650177,478.743378 
	C366.344025,478.257996 385.574982,478.257996 404.953888,478.257996 
	C405.254120,475.605896 405.494110,473.486053 405.734100,471.366211 
z"/>
<path fill="#ABABAB" opacity="1.000000" stroke="none" 
	d="
M636.093750,688.375916 
	C636.093689,668.104126 636.093689,647.832336 636.093689,626.873718 
	C656.470703,626.873718 676.306030,626.873718 696.408813,626.873718 
	C696.655273,623.796387 696.849182,621.376038 697.065247,618.678101 
	C720.255249,618.678101 743.296570,618.678101 766.914734,618.678101 
	C766.914734,641.669617 766.914734,664.408264 766.454590,687.714111 
	C748.583313,688.281250 731.172119,688.281250 713.144714,688.281250 
	C713.144714,693.944580 713.144714,698.734985 713.144714,703.525452 
	C687.892578,703.595459 662.640503,703.665405 636.892090,703.329834 
	C636.295044,698.074829 636.194397,693.225342 636.093750,688.375916 
z"/>
<path fill="#ACABAB" opacity="1.000000" stroke="none" 
	d="
M836.818298,478.181702 
	C836.818298,501.286102 836.818298,524.390503 836.818298,547.896851 
	C795.746643,547.896851 754.782776,547.896851 713.227722,547.896851 
	C713.227722,524.759460 713.227722,501.831970 713.233643,478.050201 
	C713.265198,475.361420 713.290771,473.526886 713.316284,471.692383 
	C719.133850,471.559937 724.951294,471.320496 730.768982,471.314392 
	C750.765747,471.293488 770.762695,471.354279 791.208557,471.878906 
	C791.738525,474.146729 791.819458,475.919617 791.922791,478.181702 
	C807.121582,478.181702 821.969971,478.181702 836.818298,478.181702 
z"/>
<path fill="#ACACAC" opacity="1.000000" stroke="none" 
	d="
M346.550903,626.744751 
	C365.947388,626.744812 385.343872,626.744812 405.342499,626.744812 
	C405.342499,647.273438 405.342499,667.329346 405.323029,688.279968 
	C405.265900,693.928406 405.228241,698.682129 405.190582,703.435852 
	C379.874329,703.495239 354.558105,703.554565 328.791199,703.110107 
	C328.251923,697.931458 328.163239,693.256714 328.065125,688.139648 
	C328.040497,669.144958 328.110168,650.591797 327.941864,632.040894 
	C327.906128,628.103760 329.283203,626.743958 333.145081,626.915649 
	C337.602356,627.113831 342.081329,626.823181 346.550903,626.744751 
z"/>
<path fill="#ACABAB" opacity="1.000000" stroke="none" 
	d="
M556.359985,478.269470 
	C556.359985,501.365509 556.359985,524.461548 556.359985,547.927917 
	C533.133301,547.927917 510.122345,547.927917 486.416870,547.927917 
	C486.416870,524.971436 486.416870,502.094757 486.863953,478.733490 
	C510.327362,478.255737 533.343689,478.262604 556.359985,478.269470 
z"/>
<path fill="#9A9999" opacity="1.000000" stroke="none" 
	d="
M346.446838,626.320312 
	C342.081329,626.823181 337.602356,627.113831 333.145081,626.915649 
	C329.283203,626.743958 327.906128,628.103760 327.941864,632.040894 
	C328.110168,650.591797 328.040497,669.144958 327.592072,688.135681 
	C310.179749,688.554016 293.231079,688.533875 276.282379,688.513733 
	C276.282379,665.426880 276.282379,642.340027 276.282379,618.811157 
	C299.347473,618.811157 322.342499,618.811157 345.867401,618.811157 
	C346.020172,621.088318 346.181458,623.492065 346.446838,626.320312 
z"/>
<path fill="#8C090B" opacity="1.000000" stroke="none" 
	d="
M766.959167,337.751862 
	C743.879761,337.786285 720.800415,337.820709 697.235962,337.343628 
	C696.741089,330.383881 696.731262,323.935669 696.721497,317.487457 
	C719.840454,317.420013 742.959473,317.352570 766.518433,317.799164 
	C766.958740,324.792755 766.958923,331.272308 766.959167,337.751862 
z"/>
<path fill="#8C090B" opacity="1.000000" stroke="none" 
	d="
M346.071350,317.442352 
	C369.174866,317.403992 392.278381,317.365601 415.853119,317.842834 
	C416.316925,324.813660 416.309479,331.268890 416.302063,337.724121 
	C393.211334,337.779663 370.120575,337.835175 346.583008,337.376648 
	C346.114532,330.389160 346.092926,323.915741 346.071350,317.442352 
z"/>
<path fill="#EAE9E9" opacity="1.000000" stroke="none" 
	d="
M416.748444,337.792725 
	C416.309479,331.268890 416.316925,324.813660 416.336639,317.926025 
	C438.145752,317.493591 459.942566,317.493591 482.032227,317.493591 
	C482.032227,324.173615 482.032227,330.774902 482.032227,337.861298 
	C460.365570,337.861298 438.780182,337.861298 416.748444,337.792725 
z"/>
<path fill="#EAE9E9" opacity="1.000000" stroke="none" 
	d="
M696.270020,317.419739 
	C696.731262,323.935669 696.741089,330.383881 696.756042,337.281464 
	C676.828430,337.730835 656.895630,337.730835 636.618835,337.730835 
	C636.618835,331.078308 636.618835,324.522034 636.618835,317.351990 
	C656.378479,317.351990 676.098572,317.351990 696.270020,317.419739 
z"/>
<path fill="#890D0F" opacity="1.000000" stroke="none" 
	d="
M635.628784,688.371094 
	C636.194397,693.225342 636.295044,698.074829 636.385864,703.373535 
	C610.922974,703.791809 585.469971,703.760742 559.580811,703.627563 
	C559.144531,698.741638 559.144531,693.957703 559.144531,688.261597 
	C581.761658,688.261597 603.783936,688.261597 626.246338,688.178833 
	C629.512268,688.186157 632.338013,688.276184 635.628784,688.371094 
z"/>
<path fill="#890D0F" opacity="1.000000" stroke="none" 
	d="
M405.625122,703.536133 
	C405.228241,698.682129 405.265900,693.928406 405.412811,688.763062 
	C408.809601,688.321594 412.097168,688.291870 415.848999,688.178711 
	C435.967834,688.210022 455.622375,688.325928 475.276917,688.437988 
	C477.410156,688.450195 479.543488,688.439697 482.500427,688.439697 
	C482.500427,693.505249 482.500427,698.112366 482.541565,703.146118 
	C457.075012,703.594055 431.567322,703.615234 405.625122,703.536133 
z"/>
<path fill="#890D0F" opacity="1.000000" stroke="none" 
	d="
M713.583252,703.626648 
	C713.144714,698.734985 713.144714,693.944580 713.144714,688.281250 
	C731.172119,688.281250 748.583313,688.281250 766.447998,688.188721 
	C766.901489,688.096191 767.015991,688.016663 767.024414,688.523804 
	C766.997803,693.835876 766.962708,698.640686 766.927612,703.445557 
	C749.292297,703.539673 731.657043,703.633728 713.583252,703.626648 
z"/>
<path fill="#8C090B" opacity="1.000000" stroke="none" 
	d="
M276.205566,689.010437 
	C293.231079,688.533875 310.179749,688.554016 327.601501,688.578003 
	C328.163239,693.256714 328.251923,697.931458 328.352051,703.032959 
	C311.975403,703.569946 295.586853,703.742798 279.199921,703.645630 
	C278.139435,703.639282 276.312073,701.636108 276.183960,700.420349 
	C275.804688,696.820618 276.098297,693.150024 276.205566,689.010437 
z"/>
<path fill="#7A0F11" opacity="1.000000" stroke="none" 
	d="
M556.695190,478.242615 
	C533.343689,478.262604 510.327362,478.255737 486.869629,478.285614 
	C485.398163,478.254700 484.368103,478.187073 482.949341,478.126373 
	C482.419800,476.180695 482.278992,474.228088 482.117554,471.869873 
	C507.682465,471.388885 533.268005,471.313507 559.270630,471.321930 
	C559.553040,473.393616 559.418335,475.381531 559.167358,477.725281 
	C558.377563,478.126038 557.704041,478.170898 556.695190,478.242615 
z"/>
<path fill="#7A0F11" opacity="1.000000" stroke="none" 
	d="
M405.308594,471.273254 
	C405.494110,473.486053 405.254120,475.605896 404.953888,478.257996 
	C385.574982,478.257996 366.344025,478.257996 346.654907,478.295715 
	C340.605133,478.256927 335.013519,478.180389 328.991272,478.118591 
	C328.419830,476.180756 328.278992,474.228149 328.117554,471.869934 
	C353.692352,471.369629 379.287720,471.274994 405.308594,471.273254 
z"/>
<path fill="#EAE9E9" opacity="1.000000" stroke="none" 
	d="
M767.430542,337.826050 
	C766.958923,331.272308 766.958740,324.792755 766.979248,317.882660 
	C774.955139,317.452118 782.910339,317.452118 791.295410,317.452118 
	C791.295410,324.142609 791.295410,330.801575 791.295410,337.900269 
	C783.416992,337.900269 775.659424,337.900269 767.430542,337.826050 
z"/>
<path fill="#7A0F11" opacity="1.000000" stroke="none" 
	d="
M696.011597,478.059143 
	C676.368530,478.059143 656.725464,478.059143 636.290405,478.059143 
	C636.290405,476.069580 636.290405,474.313843 636.297363,472.095856 
	C642.603699,471.460175 648.902649,471.156982 655.202393,471.140167 
	C668.507019,471.104645 681.812134,471.218842 695.566711,471.770996 
	C696.014832,474.199921 696.013184,476.129517 696.011597,478.059143 
z"/>
<path fill="#7A0F11" opacity="1.000000" stroke="none" 
	d="
M767.393250,703.548950 
	C766.962708,698.640686 766.997803,693.835876 767.067566,688.578613 
	C774.941223,688.151184 782.780212,688.176147 791.052246,688.204956 
	C791.606995,693.034119 791.728699,697.859436 791.876099,703.110962 
	C783.887390,703.575500 775.873169,703.613892 767.393250,703.548950 
z"/>
<path fill="#EAE9E9" opacity="1.000000" stroke="none" 
	d="
M345.594604,317.368774 
	C346.092926,323.915741 346.114532,330.389160 346.126282,337.310150 
	C340.349304,337.757751 334.582123,337.757751 328.547180,337.757751 
	C328.547180,330.904541 328.547180,324.356934 328.547180,317.295197 
	C334.241669,317.295197 339.679810,317.295197 345.594604,317.368774 
z"/>
<path fill="#8C090B" opacity="1.000000" stroke="none" 
	d="
M836.886719,477.737122 
	C821.969971,478.181702 807.121582,478.181702 791.922791,478.181702 
	C791.819458,475.919617 791.738525,474.146729 791.647827,471.956055 
	C805.617432,471.426331 819.596802,471.318878 833.576111,471.200256 
	C838.462769,471.158783 836.692871,474.783142 836.886719,477.737122 
z"/>
<path fill="#8C090B" opacity="1.000000" stroke="none" 
	d="
M696.166809,478.172546 
	C696.013184,476.129517 696.014832,474.199921 696.027588,471.870148 
	C701.483582,471.468048 706.928345,471.466125 712.844727,471.578278 
	C713.290771,473.526886 713.265198,475.361420 713.138672,477.588501 
	C707.911865,478.018433 702.786011,478.055817 697.183228,478.186829 
	C696.706360,478.280457 696.322021,478.285950 696.166809,478.172546 
z"/>
</svg>